<svg width="330" height="330" viewBox="0 0 330 330" fill="none" xmlns="http://www.w3.org/2000/svg">
<rect width="330" height="330" rx="165" fill="#C3E51C"/>
<path d="M52.64 246V83.62H88.75V246H52.64ZM80.24 246V214.72H169.25V246H80.24ZM80.24 178.15V148.02H161.2V178.15H80.24ZM80.24 114.67V83.62H168.1V114.67H80.24Z" fill="#151018"/>
<path d="M188.24 246V217.94H226.42C233.473 217.94 238.993 215.87 242.98 211.73C246.967 207.59 248.96 202.53 248.96 196.55C248.96 192.41 248.04 188.73 246.2 185.51C244.36 182.29 241.753 179.76 238.38 177.92C235.16 176.08 231.173 175.16 226.42 175.16H188.24V147.79H223.43C229.41 147.79 234.24 146.333 237.92 143.42C241.6 140.353 243.44 135.753 243.44 129.62C243.44 123.64 241.6 119.193 237.92 116.28C234.24 113.213 229.41 111.68 223.43 111.68H188.24V83.62H230.33C240.757 83.62 249.573 85.5367 256.78 89.37C264.14 93.2033 269.737 98.34 273.57 104.78C277.403 111.22 279.32 118.35 279.32 126.17C279.32 136.137 276.1 144.57 269.66 151.47C263.22 158.37 253.713 163.123 241.14 165.73L242.06 153.54C255.707 156.147 266.21 161.437 273.57 169.41C281.083 177.383 284.84 187.197 284.84 198.85C284.84 207.743 282.617 215.793 278.17 223C273.877 230.053 267.59 235.65 259.31 239.79C251.183 243.93 241.37 246 229.87 246H188.24ZM160.64 246V83.62H196.29V246H160.64Z" fill="#151018"/>
<path d="M161 114.697H149V83.5H161V114.697Z" fill="#151018"/>
<path d="M160.646 179H132V148H160.646V179Z" fill="#C3E51C"/>
<path d="M208.001 246H196.301V217.928H208.001V246Z" fill="#C3E51C"/>
<path d="M208 111.757H196.297V83.5H208V111.757Z" fill="#C3E51C"/>
<path d="M161.084 246H149.625V214.759H161.001L161.084 246Z" fill="#151018"/>
</svg>
